<?xml version="1.0" encoding="UTF-8" standalone="no"?>
<svg
   xmlns:dc="http://purl.org/dc/elements/1.1/"
   xmlns:cc="http://creativecommons.org/ns#"
   xmlns:rdf="http://www.w3.org/1999/02/22-rdf-syntax-ns#"
   xmlns:svg="http://www.w3.org/2000/svg"
   xmlns="http://www.w3.org/2000/svg"
   xmlns:sodipodi="http://sodipodi.sourceforge.net/DTD/sodipodi-0.dtd"
   xmlns:inkscape="http://www.inkscape.org/namespaces/inkscape"
   version="1.1"
   x="0px"
   y="0px"
   viewBox="0 0 1080 1920"
   enable-background="new 0 0 100 100"
   xml:space="preserve"
   id="svg26"
   sodipodi:docname="noun_Verified Document_250460.svg"
   width="1080"
   height="1920"
   inkscape:version="1.0.1 (3bc2e813f5, 2020-09-07)"
   inkscape:export-filename="/home/olivier/PycharmProjects/generateur_attestation/build_armv8/splash.png"
   inkscape:export-xdpi="96"
   inkscape:export-ydpi="96"><metadata
     id="metadata32"><rdf:RDF><cc:Work
         rdf:about=""><dc:format>image/svg+xml</dc:format><dc:type
           rdf:resource="http://purl.org/dc/dcmitype/StillImage" /><dc:title></dc:title></cc:Work></rdf:RDF></metadata><defs
     id="defs30" /><sodipodi:namedview
     pagecolor="#000000"
     bordercolor="#666666"
     borderopacity="1"
     objecttolerance="10"
     gridtolerance="10"
     guidetolerance="10"
     inkscape:pageopacity="0"
     inkscape:pageshadow="2"
     inkscape:window-width="1920"
     inkscape:window-height="1005"
     id="namedview28"
     showgrid="false"
     inkscape:zoom="0.21"
     inkscape:cx="556.45299"
     inkscape:cy="707.06313"
     inkscape:window-x="0"
     inkscape:window-y="25"
     inkscape:window-maximized="1"
     inkscape:current-layer="svg26" /><g
     id="g52"
     transform="matrix(8.9617838,0,0,8.9617838,163.91081,511.91081)"><polygon
       fill="none"
       points="67.4,81.5 62.9,78.4 62.1,79.6 67.8,83.6 68.6,82.5 75.5,72.6 74.3,71.8 "
       id="polygon2"
       style="fill:#000000" /><path
       fill="none"
       d="m 59.8,21.5 h 5.5 l -7,-6.8 v 5 c 0,1.8 1.5,1.8 1.5,1.8 z"
       id="path4"
       style="fill:#ffffff" /><path
       d="M 54.6,77.4 H 25.7 c -2.3,0 -4.1,-1.9 -4.1,-4.3 v -56 c 0,-2.4 1.9,-4.3 4.1,-4.3 H 56 V 21 c 0,2.8 2.5,2.7 2.5,2.7 h 8.8 v 40.2 c 0.6,-0.1 1.3,-0.1 2,-0.1 0.4,0 0.7,0 1.1,0.1 V 23.7 22.3 L 57.5,9.8 H 56.2 23.4 c -2.6,0 -4.7,2.1 -4.7,4.7 v 61.1 c 0,2.6 2.1,4.7 4.7,4.7 h 31.3 c -0.1,-0.6 -0.1,-1.2 -0.1,-1.8 -0.1,-0.4 0,-0.8 0,-1.1 z m 3.7,-62.7 7,6.8 h -5.5 c 0,0 -1.5,0 -1.5,-1.8 z"
       id="path6"
       style="fill:#ffffff" /><rect
       x="27.200001"
       y="32"
       width="34.700001"
       height="2.4000001"
       id="rect8"
       style="fill:#ffffff" /><rect
       x="27.200001"
       y="41.400002"
       width="34.700001"
       height="2.3"
       id="rect10"
       style="fill:#ffffff" /><rect
       x="27.200001"
       y="50.799999"
       width="34.700001"
       height="2.4000001"
       id="rect12"
       style="fill:#ffffff" /><rect
       x="27.200001"
       y="60.200001"
       width="34.700001"
       height="2.3"
       id="rect14"
       style="fill:#ffffff" /><rect
       x="27.200001"
       y="22.6"
       width="19.700001"
       height="2.3"
       id="rect16"
       style="fill:#ffffff" /><path
       d="m 68.8,65.2 c -6.9,0 -12.5,5.6 -12.5,12.5 0,6.9 5.6,12.5 12.5,12.5 6.9,0 12.5,-5.6 12.5,-12.5 0,-6.9 -5.6,-12.5 -12.5,-12.5 z m -0.2,17.3 v 0 l -0.8,1.1 -5.7,-4 0.9,-1.2 4.5,3.2 6.8,-9.7 1.2,0.9 z"
       id="path18"
       style="fill:#ffffff;stroke:none" /></g></svg>
